# xmcd CD database file
#
# Track frame offsets:
#	187
#	20082
#	38857
#	55820
#	78267
#	96687
#	112757
#	135015
#	152242
#	169422
#
# Disc length: 2495 seconds
#
# Revision: 0
# Processed by: cddbd v1.5.1PL0 Copyright (c) Steve Scherf et al.
# Submitted via: CDex 1.51
#
DISCID=7a09bd0a
DTITLE=NOBODY - From A Window
DYEAR=1985
DGENRE=Rock
TTITLE0=PLEASURE SYNDROME
TTITLE1=MOONLIGHT DANCER
TTITLE2=EVERYBODY SHOUT
TTITLE3=RESCUE PLEASE
TTITLE4=PLAY THE BLUES
TTITLE5=RAIN
TTITLE6=ANOTHER DAY
TTITLE7=FARAWAY SEPTEMBER
TTITLE8=IT'S ALL OVER
TTITLE9=AN ORDINARY MORNING
EXTD=YEAR: 1985
EXTT0=
EXTT1=
EXTT2=
EXTT3=
EXTT4=
EXTT5=
EXTT6=
EXTT7=
EXTT8=
EXTT9=
PLAYORDER=
